# xmcd
#
# Track frame offsets: 
#        150
#        17559
#        34903
#        53913
#        65980
#        80762
#        97572
#        113803
#        131784
#        153063
#        167555
#        184633
#        210064
#        230616
#        252524
#
# Disc length: 3587 seconds
#
# Revision: 1
# Processed by: cddbd v1.5.2PL0 Copyright (c) Steve Scherf et al.
# Submitted via: ExactAudioCopy v0.95a4
#
DISCID=be0e010f
DTITLE=Calvin Owens - Ain't Gonna Be Your Dog No Mo
DYEAR=2006
DGENRE=Blues
TTITLE0=Mr. Handy
TTITLE1=Never Saw It Coming
TTITLE2=Best Worst Day
TTITLE3=Just Be True To Me
TTITLE4=Hold What You Got
TTITLE5=Black Night
TTITLE6=Handcuffed To The Blues
TTITLE7=So Mean To Me
TTITLE8=Magic Stick
TTITLE9=Time To Rock
TTITLE10=Nobody Ever Loved Me
TTITLE11=Mr. Maxwell
TTITLE12=I Ain't Gonna Be Yo' Dog No Mo'
TTITLE13=You Didn't Hurt Me
TTITLE14=Sweet Angel
EXTD=
EXTT0=
EXTT1=
EXTT2=
EXTT3=
EXTT4=
EXTT5=
EXTT6=
EXTT7=
EXTT8=
EXTT9=
EXTT10=
EXTT11=
EXTT12=
EXTT13=
EXTT14=
PLAYORDER=
